<svg xmlns="http://www.w3.org/2000/svg" id="blacktan" width="169.97" height="179.09" viewBox="0 0 169.96963 179.09014">
  <path d="M10.504 84.227c8.2-19.5 26.1-33.9 47.6-37.6-3.9-6.3-33.6-53.4-49.2-45.8-16.6 8.2-4.9 56.1-4.9 56.1s-1.2 14.6 6.5 27.3z" class="st4"/>
  <path d="M165.304 31.527c-15.4-11.2-56.4 20.2-62.8 25.2 17 11.6 28 31.3 27.3 53.3 0 1.1-.1 2.2-.2 3.3 12.8-8.1 18.9-27.9 18.9-27.9s33.5-41.8 16.8-53.9z" class="st4"/>
  <path d="M130.804 109.127c-1 34.6-30 61.8-64.9 60.9-34.9-.9-62.4-29.8-61.4-64.3s30-61.8 64.9-60.9c34.9.9 62.4 29.7 61.4 64.3z" class="st0"/>
  <path d="M78.804 94.527l2.6-31.4c.6-2.3-.8-4.6-3.1-5.1-2.3-.6-4.6.8-5.2 3.1l-10.5 30.3c-18.6.7-33.6 15.9-33.6 34.5-.1 19.2 15.6 34.8 34.9 34.9 19.3.1 35.2-15.4 35.2-34.6.1-14-8.3-26.1-20.3-31.7z" class="st1"/>
  <path d="M66.504 111.627c-7.1-1.1-14.3 1.2-15.5 8.3-1.1 7 4.6 13.8 11.8 15 7.2 1.2 14.7-3.5 15.8-10.6 1.1-7-5-11.5-12.1-12.7z" class="st2"/>
  <path d="M39.604 76.027c-4.1-.8-8 1.9-8.8 5.9-.8 4 1.9 7.9 5.9 8.7 4.1.8 8-1.9 8.8-5.9.9-4-1.8-7.9-5.9-8.7z" class="st2"/>
  <path d="M104.404 88.427c-4.1-.8-8 1.9-8.8 5.9-.8 4 1.9 7.9 5.9 8.7 4.1.8 8-1.9 8.8-5.9.9-4.1-1.8-8-5.9-8.7z" class="st2"/>
  <g>
    <path d="M106.904 74.727c-5.4-.8-10.1.4-10.5 2.8-.4 2.4 3.7 5 9.1 5.8 5.4.8 10.1-.4 10.5-2.8.4-2.4-3.7-5-9.1-5.8z" class="st3"/>
    <path d="M42.104 62.327c-5.4-.8-10.1.4-10.5 2.8-.4 2.4 3.7 5 9.1 5.8 5.4.8 10.1-.4 10.5-2.8.4-2.3-3.7-4.9-9.1-5.8z" class="st3"/>
  </g>
  <g id="blacktan-mouth" stroke-width=".1">
    <path fill="#a42d3b" d="M94.354 136.29l-.053.173c-.323.827-1.782 4.247-5.48 7.787-.567.54-1.18 1.087-1.86 1.627-2.67 2.14-6.23 4.18-10.91 5.58-3.44 1.026-7.485 1.706-12.24 1.82-4.49.106-8.34-.374-11.62-1.227-4.947-1.293-8.62-3.44-11.328-5.753-.34-.28-.665-.574-.975-.867-4.128-3.9-5.64-7.98-5.95-8.94-.03-.073-.06-.22-.06-.22s1.18.96 3.636 2.173c1.763.874 4.19 1.887 7.305 2.78 2.124.614 4.582 1.174 7.372 1.587 3.44.513 7.394.833 11.878.787 4.53-.047 8.514-.407 11.984-.96 2.577-.407 4.868-.92 6.88-1.474 3.28-.893 5.83-1.906 7.674-2.773 2.45-1.153 3.674-2.06 3.75-2.1"/>
    <g class="tongue">
      <path fill="#ec4e6c" d="M76.908 143.53c3.295-.82 7.75-.347 9.197 3l3.236 15.22c.55 3.047-.752 6.133-3.32 8.66-2.57 2.527-6.38 4.493-10.844 5.3-8.93 1.607-17.053-2.033-18.153-8.127l-2.54-14.073c-.602-3.333 5.368-6.713 11.265-7.773 1.24-.22 2.512-.427 3.822-.674 1.247-.233 2.462-.473 3.643-.72 2.24-.466 1.684-.313 3.695-.813"/>
      <path fill="#a42d3b" d="M73.213 144.343c-1.263 2.427-2.614 6.66-1.578 12.687-1.13-5.967-3.852-9.44-5.888-11.293 1.242-.207 2.512-.427 3.822-.674 1.246-.233 2.46-.473 3.642-.72"/>
    </g>
    <path fill="#fff" d="M37.51 138.443c1.763.874 4.19 1.887 7.305 2.78-.356.06-.544.094-.544.094-1.027 1.4-2.872 4.166-3.41 4.98l-.157.233c-.295-.307-.567-.68-.817-1.1-1.224-2.06-1.958-5.22-2.374-6.987"/>
    <path fill="#fff" d="M90.604 138.39c-.333 1.467-.9 3.893-1.785 5.86-.4.907-.87 1.707-1.423 2.28 0 0-.167-.253-.44-.653-.732-1.107-2.237-3.347-3.13-4.56 0 0-.324-.06-.9-.154 3.283-.893 5.83-1.906 7.676-2.773"/>
  </g>
</svg>
