<svg xmlns="http://www.w3.org/2000/svg" id="sable" width="169.969" height="178.53" viewBox="0 0 169.96899 178.53014">
  <path d="M165.304 31.527c-15.4-11.2-56.4 20.2-62.8 25.2 17 11.6 28 31.3 27.3 53.3 0 1.1-.1 2.2-.2 3.3 12.8-8.1 18.9-27.9 18.9-27.9s33.5-41.8 16.8-53.9z" class="st0"/>
  <path d="M130.804 109.127c-1 34.6-30 61.8-64.9 60.9-34.9-.9-62.4-29.8-61.4-64.3s30-61.8 64.9-60.9c34.9.9 62.4 29.7 61.4 64.3z" class="st0"/>
  <path d="M78.804 94.527l2.6-31.4c.6-2.3-.8-4.6-3.1-5.1-2.3-.6-4.6.8-5.2 3.1l-10.5 30.3c-18.6.7-33.6 15.9-33.6 34.5-.1 19.2 15.6 34.8 34.9 34.9 19.3.1 35.2-15.4 35.2-34.6.1-14-8.3-26.1-20.3-31.7z" class="st1"/>
  <path d="M66.504 111.627c-7.1-1.1-14.3 1.2-15.5 8.3-1.1 7 4.6 13.8 11.8 15 7.2 1.2 14.7-3.5 15.8-10.6 1.1-7-5-11.5-12.1-12.7z" class="st2"/>
  <path d="M39.604 76.027c-4.1-.8-8 1.9-8.8 5.9-.8 4 1.9 7.9 5.9 8.7 4.1.8 8-1.9 8.8-5.9.9-4-1.8-7.9-5.9-8.7z" class="st2"/>
  <path d="M104.404 88.427c-4.1-.8-8 1.9-8.8 5.9-.8 4 1.9 7.9 5.9 8.7 4.1.8 8-1.9 8.8-5.9.9-4.1-1.8-8-5.9-8.7z" class="st2"/>
  <path d="M106.904 74.727c-5.4-.8-10.1.4-10.5 2.8-.4 2.4 3.7 5 9.1 5.8 5.4.8 10.1-.4 10.5-2.8.4-2.4-3.7-5-9.1-5.8z" class="st3"/>
  <path d="M42.104 62.327c-5.4-.8-10.1.4-10.5 2.8-.4 2.4 3.7 5 9.1 5.8 5.4.8 10.1-.4 10.5-2.8.4-2.3-3.7-4.9-9.1-5.8z" class="st3"/>
  <path d="M10.504 84.227c8.2-19.5 26.1-33.9 47.6-37.6-3.9-6.3-33.6-53.4-49.2-45.8-16.6 8.2-4.9 56.1-4.9 56.1s-1.2 14.6 6.5 27.3z" class="st0"/>
  <g id="sable-mouth" stroke-width=".1">
    <path fill="#a42d3b" d="M93.795 135.73l-.054.174c-.322.827-1.782 4.247-5.48 7.787-.566.54-1.18 1.088-1.86 1.628-2.67 2.14-6.23 4.18-10.91 5.58-3.44 1.027-7.484 1.707-12.24 1.82-4.492.107-8.34-.373-11.622-1.226-4.944-1.292-8.62-3.44-11.326-5.753-.34-.28-.664-.574-.974-.867-4.128-3.9-5.64-7.98-5.95-8.94-.03-.073-.06-.22-.06-.22s1.18.96 3.636 2.174c1.76.873 4.19 1.887 7.303 2.78 2.125.613 4.582 1.173 7.372 1.587 3.44.514 7.394.834 11.877.787 4.53-.045 8.514-.405 11.984-.96 2.58-.405 4.87-.92 6.88-1.472 3.28-.893 5.83-1.907 7.676-2.773 2.45-1.153 3.674-2.06 3.75-2.1"/>
    <g class="tongue">
      <path fill="#ec4e6c" d="M76.35 142.97c3.293-.82 7.75-.346 9.196 3l3.235 15.22c.553 3.047-.75 6.134-3.32 8.66-2.57 2.527-6.38 4.494-10.844 5.3-8.93 1.607-17.052-2.033-18.152-8.126l-2.54-14.073c-.602-3.332 5.368-6.712 11.264-7.772 1.24-.22 2.513-.426 3.822-.673 1.247-.233 2.463-.473 3.644-.72 2.24-.467 1.684-.313 3.695-.813"/>
      <path fill="#a42d3b" d="M72.654 143.784c-1.263 2.427-2.614 6.66-1.58 12.687-1.13-5.965-3.85-9.44-5.887-11.292 1.242-.206 2.513-.426 3.822-.673 1.246-.233 2.462-.473 3.643-.72"/>
    </g>
    <path fill="#fff" d="M36.952 137.884c1.76.873 4.19 1.887 7.303 2.78l-.544.093c-1.026 1.4-2.87 4.167-3.41 4.98-.104.154-.156.234-.156.234-.296-.305-.568-.68-.817-1.1-1.225-2.06-1.96-5.22-2.374-6.985"/>
    <path fill="#fff" d="M90.045 137.83c-.333 1.467-.9 3.894-1.785 5.86-.4.907-.87 1.707-1.42 2.28 0 0-.168-.253-.44-.653-.733-1.106-2.238-3.346-3.13-4.56 0 0-.325-.06-.9-.153 3.28-.893 5.83-1.907 7.675-2.773"/>
  </g>
</svg>
