<svg xmlns="http://www.w3.org/2000/svg" id="red" width="169.969" height="178.513" viewBox="0 0 169.96895 178.51373">
  <path d="M165.304 31.527c-15.4-11.2-56.4 20.2-62.8 25.2 17 11.6 28 31.3 27.3 53.3 0 1.1-.1 2.2-.2 3.3 12.8-8.1 18.9-27.9 18.9-27.9s33.5-41.8 16.8-53.9z" class="st0"/>
  <path d="M130.804 109.127c-1 34.6-30 61.8-64.9 60.9-34.8-1-62.4-29.7-61.4-64.3 1-34.6 30-61.8 64.9-60.9 34.9.9 62.4 29.7 61.4 64.3z" class="st0"/>
  <path d="M78.804 94.527l2.6-31.4c.6-2.3-.8-4.6-3.1-5.1-2.3-.6-4.6.8-5.2 3.1l-10.5 30.3c-18.6.7-33.6 15.9-33.6 34.5-.1 19.2 15.6 34.8 34.9 34.9 19.4.1 35.2-15.4 35.2-34.6.1-14-8.3-26.1-20.3-31.7z" class="st1"/>
  <path d="M66.504 111.627c-7.1-1.1-14.3 1.2-15.5 8.3-1.1 7 4.6 13.8 11.8 15 7.1 1.1 14.7-3.5 15.8-10.6 1.1-7-5-11.5-12.1-12.7z" class="st2"/>
  <path d="M39.604 76.027c-4.1-.8-8 1.9-8.8 5.9-.8 4 1.9 7.9 5.9 8.7 4.1.8 8-1.9 8.8-5.9.9-4-1.8-7.9-5.9-8.7z" class="st2"/>
  <path d="M104.404 88.427c-4.1-.8-8 1.9-8.8 5.9-.8 4 1.9 7.9 5.9 8.7 4.1.8 8-1.9 8.8-5.9.9-4.1-1.8-8-5.9-8.7z" class="st2"/>
  <path d="M106.904 74.727c-5.4-.8-10.1.4-10.5 2.8-.4 2.4 3.7 5 9.1 5.8 5.4.8 10.1-.4 10.5-2.8.4-2.4-3.7-5-9.1-5.8z" class="st3"/>
  <path d="M42.104 62.327c-5.4-.8-10.1.4-10.5 2.8-.4 2.4 3.7 5 9.1 5.8 5.4.8 10.1-.4 10.5-2.8.4-2.3-3.7-4.9-9.1-5.8z" class="st3"/>
  <path d="M10.504 84.227c8.2-19.5 26.1-33.9 47.6-37.6-3.9-6.3-33.6-53.4-49.2-45.8-16.6 8.2-4.9 56.1-4.9 56.1s-1.2 14.6 6.5 27.3z" class="st0"/>
  <g id="red-mouth" stroke-width=".1">
    <path fill="#a42d3b" d="M94.49 135.714l-.054.173c-.325.827-1.784 4.247-5.48 7.787-.57.54-1.18 1.086-1.86 1.626-2.67 2.14-6.23 4.18-10.912 5.58-3.44 1.027-7.485 1.707-12.24 1.82-4.492.107-8.34-.373-11.622-1.226-4.945-1.293-8.62-3.44-11.326-5.754-.34-.28-.665-.573-.975-.866-4.126-3.9-5.64-7.98-5.95-8.94-.03-.074-.06-.22-.06-.22s1.18.96 3.638 2.173c1.76.873 4.188 1.887 7.303 2.78 2.126.613 4.583 1.173 7.373 1.587 3.44.513 7.395.833 11.878.786 4.53-.046 8.515-.406 11.985-.96 2.58-.406 4.87-.92 6.88-1.473 3.282-.893 5.83-1.907 7.675-2.773 2.45-1.154 3.673-2.06 3.75-2.1"/>
    <g class="tongue">
      <path fill="#ec4e6c" d="M77.043 142.954c3.295-.82 7.75-.347 9.198 3l3.237 15.22c.55 3.046-.753 6.133-3.32 8.66-2.57 2.526-6.38 4.493-10.846 5.3-8.93 1.606-17.052-2.034-18.152-8.127l-2.54-14.073c-.602-3.334 5.368-6.714 11.265-7.774 1.24-.22 2.513-.426 3.822-.673 1.248-.233 2.463-.473 3.645-.72 2.24-.467 1.683-.313 3.693-.813"/>
      <path fill="#a42d3b" d="M73.35 143.767c-1.265 2.427-2.615 6.66-1.58 12.687-1.13-5.967-3.85-9.44-5.888-11.294 1.242-.206 2.513-.426 3.822-.673 1.248-.233 2.463-.473 3.645-.72"/>  
    </g>
    <path fill="#fff" d="M37.647 137.867c1.76.873 4.188 1.887 7.303 2.78l-.544.093c-1.03 1.4-2.873 4.167-3.41 4.98l-.16.234c-.294-.307-.566-.68-.815-1.1-1.223-2.06-1.957-5.22-2.372-6.987"/>
    <path fill="#fff" d="M90.74 137.814c-.333 1.466-.9 3.893-1.785 5.86-.4.906-.87 1.706-1.422 2.28 0 0-.166-.254-.438-.654-.734-1.106-2.238-3.346-3.13-4.56 0 0-.326-.06-.9-.153 3.28-.893 5.83-1.907 7.674-2.773"/>
  </g>
</svg>
